# xmcd
#
# Track frame offsets: 
#        150
#        15997
#        31451
#        52873
#        86710
#        103556
#        149163
#        166785
#        189177
#        211416
#        235501
#        278370
#
# Disc length: 4031 seconds
#
# Revision: 3
# Processed by: cddbd v1.5.2PL0 Copyright (c) Steve Scherf et al.
# Submitted via: ExactAudioCopy v0.95a4
#
DISCID=8f0fbd0c
DTITLE=Dani Wilde, Victoria Smith and Samantha Fish - Blues Caravan 2012
DTITLE=Girls With Guitars Live
DYEAR=2012
DGENRE=Blues
TTITLE0=Bitch
TTITLE1=Don't Go Making Me Cry
TTITLE2=Red Blood Woman
TTITLE3=I Put A Spell On You
TTITLE4=Leaving Kind
TTITLE5=Money To Burn
TTITLE6=Juice Me Up
TTITLE7=Who's Loving You
TTITLE8=Down In The Swamp
TTITLE9=Mississippi Kisses
TTITLE10=Runaway
TTITLE11=Jet Airliner
EXTD=Year: 2012
EXTT0=
EXTT1=
EXTT2=
EXTT3=
EXTT4=
EXTT5=
EXTT6=
EXTT7=
EXTT8=
EXTT9=
EXTT10=
EXTT11=
PLAYORDER=
